# xmcd
#
# Track frame offsets:
#	150
#	14131
#	32117
#	43210
#	57415
#	70761
#	86995
#	100136
#	124796
#	137676
#	149984
#	162572
#
# Disc length: 2387 seconds
#
# Revision: 2
# Processed by: cddbd v1.5.2PL0 Copyright (c) Steve Scherf et al.
# Submitted via: Jack! The Knife
#
DISCID=be09510c
DTITLE=System Of A Down - Hypnotize
DYEAR=2005
DGENRE=Heavy Metal
TTITLE0=Attack
TTITLE1=Dreaming
TTITLE2=Kill Rock 'n Roll
TTITLE3=Hypnotize
TTITLE4=Stealing Society
TTITLE5=Tentative
TTITLE6=U-Fig
TTITLE7=Holy Mountains
TTITLE8=Vicinity of Obscenity
TTITLE9=She's like Heroin
TTITLE10=Lonely Day
TTITLE11=Soldier Side
EXTD=Rick Rubin and Daron Malakian
EXTT0=
EXTT1=
EXTT2=
EXTT3=
EXTT4=
EXTT5=
EXTT6=
EXTT7=
EXTT8=
EXTT9=
EXTT10=
EXTT11=
PLAYORDER=
